<?xml version="1.0" encoding="UTF-8"?>
<svg xmlns="http://www.w3.org/2000/svg" xmlns:xlink="http://www.w3.org/1999/xlink" width="64pt" height="64pt" viewBox="0 0 64 64" version="1.1">
<g id="surface1">
<path style=" stroke:none;fill-rule:nonzero;fill:rgb(93.72549%,93.72549%,93.72549%);fill-opacity:1;" d="M 7.40625 49.109375 C 7.40625 36.8125 1.039062 28.367188 1.039062 22.441406 C 1.039062 16.515625 4.445312 4.070312 31.703125 4.070312 C 58.960938 4.070312 62.960938 20.8125 62.960938 27.328125 C 62.964844 57.847656 7.40625 70.886719 7.40625 49.109375 Z M 7.40625 49.109375 "/>
<path style=" stroke:none;fill-rule:nonzero;fill:rgb(64.313725%,68.627451%,75.686275%);fill-opacity:1;" d="M 26.644531 9.910156 L 29.160156 7.394531 L 30.417969 8.652344 L 27.902344 11.167969 Z M 26.644531 9.910156 "/>
<path style=" stroke:none;fill-rule:nonzero;fill:rgb(64.313725%,68.627451%,75.686275%);fill-opacity:1;" d="M 19.417969 17.136719 L 21.929688 14.625 L 23.1875 15.882812 L 20.675781 18.394531 Z M 19.417969 17.136719 "/>
<path style=" stroke:none;fill-rule:nonzero;fill:rgb(64.313725%,68.627451%,75.686275%);fill-opacity:1;" d="M 19.414062 8.332031 L 20.671875 7.074219 L 23.183594 9.589844 L 21.925781 10.84375 Z M 19.414062 8.332031 "/>
<path style=" stroke:none;fill-rule:nonzero;fill:rgb(64.313725%,68.627451%,75.686275%);fill-opacity:1;" d="M 53.070312 13.332031 C 51.601562 13.332031 50.402344 12.136719 50.402344 10.667969 C 50.402344 9.195312 51.601562 8 53.070312 8 C 54.539062 8 55.738281 9.195312 55.738281 10.667969 C 55.738281 12.136719 54.539062 13.332031 53.070312 13.332031 Z M 53.070312 9.777344 C 52.582031 9.777344 52.179688 10.179688 52.179688 10.667969 C 52.179688 11.15625 52.582031 11.554688 53.070312 11.554688 C 53.558594 11.554688 53.960938 11.15625 53.960938 10.667969 C 53.960938 10.179688 53.558594 9.777344 53.070312 9.777344 Z M 53.070312 9.777344 "/>
<path style=" stroke:none;fill-rule:nonzero;fill:rgb(95.294118%,95.294118%,94.509804%);fill-opacity:1;" d="M 23.554688 37.332031 C 23.554688 39.542969 21.765625 41.332031 19.554688 41.332031 C 17.347656 41.332031 15.554688 39.542969 15.554688 37.332031 C 15.554688 35.125 17.347656 33.332031 19.554688 33.332031 C 21.765625 33.332031 23.554688 35.125 23.554688 37.332031 Z M 23.554688 37.332031 "/>
<path style=" stroke:none;fill-rule:nonzero;fill:rgb(18.431373%,87.45098%,51.764706%);fill-opacity:1;" d="M 31.242188 32.003906 L 29.660156 37.777344 L 36.757812 34.152344 C 37.511719 34.273438 38.304688 34.339844 39.109375 34.339844 C 46.226562 34.339844 52 29.339844 52 23.167969 C 52 17 46.226562 12 39.109375 12 C 31.996094 12 26.222656 17 26.222656 23.167969 C 26.222656 26.761719 28.179688 29.960938 31.242188 32.003906 Z M 31.242188 32.003906 "/>
<path style=" stroke:none;fill-rule:nonzero;fill:rgb(95.294118%,95.294118%,94.509804%);fill-opacity:1;" d="M 27.109375 52 L 27.109375 49.332031 C 27.109375 47.367188 25.519531 45.777344 23.554688 45.777344 L 15.554688 45.777344 C 13.589844 45.777344 12 47.367188 12 49.332031 L 12 52 Z M 27.109375 52 "/>
<path style=" stroke:none;fill-rule:nonzero;fill:rgb(83.529412%,85.882353%,88.235294%);fill-opacity:1;" d="M 19.554688 37.332031 C 19.554688 35.855469 20.363281 34.582031 21.554688 33.886719 C 20.964844 33.542969 20.289062 33.332031 19.554688 33.332031 C 17.347656 33.332031 15.554688 35.125 15.554688 37.332031 C 15.554688 39.542969 17.347656 41.332031 19.554688 41.332031 C 20.289062 41.332031 20.964844 41.121094 21.554688 40.777344 C 20.363281 40.085938 19.554688 38.8125 19.554688 37.332031 Z M 19.554688 37.332031 "/>
<path style=" stroke:none;fill-rule:nonzero;fill:rgb(0%,72.156863%,44.313725%);fill-opacity:1;" d="M 34.308594 35.402344 L 35.238281 32.003906 C 32.179688 29.960938 30.222656 26.761719 30.222656 23.167969 C 30.222656 17.589844 34.949219 12.984375 41.109375 12.148438 C 40.457031 12.058594 39.792969 12 39.109375 12 C 31.996094 12 26.222656 17 26.222656 23.167969 C 26.222656 26.761719 28.179688 29.957031 31.242188 32.003906 L 29.660156 37.777344 Z M 34.308594 35.402344 "/>
<path style=" stroke:none;fill-rule:nonzero;fill:rgb(0%,72.156863%,44.313725%);fill-opacity:1;" d="M 41.105469 34.195312 C 40.988281 34.179688 40.871094 34.171875 40.753906 34.152344 L 40.523438 34.269531 C 40.71875 34.253906 40.910156 34.21875 41.105469 34.195312 Z M 41.105469 34.195312 "/>
<path style=" stroke:none;fill-rule:nonzero;fill:rgb(83.529412%,85.882353%,88.235294%);fill-opacity:1;" d="M 19.554688 45.777344 L 15.554688 45.777344 C 13.589844 45.777344 12 47.367188 12 49.332031 L 12 52 L 16 52 L 16 49.332031 C 16 47.367188 17.589844 45.777344 19.554688 45.777344 Z M 19.554688 45.777344 "/>
<path style=" stroke:none;fill-rule:nonzero;fill:rgb(0%,0%,0%);fill-opacity:1;" d="M 36.445312 28 C 36.101562 28 35.761719 27.871094 35.503906 27.609375 L 31.945312 24.054688 L 33.832031 22.167969 L 36.445312 24.78125 L 42.613281 18.613281 L 44.5 20.496094 L 37.390625 27.609375 C 37.128906 27.871094 36.785156 28 36.445312 28 Z M 36.445312 28 "/>
<path style=" stroke:none;fill-rule:nonzero;fill:rgb(0%,0%,0%);fill-opacity:1;" d="M 19.554688 42.667969 C 16.613281 42.667969 14.222656 40.273438 14.222656 37.332031 C 14.222656 34.394531 16.613281 32 19.554688 32 C 22.496094 32 24.890625 34.394531 24.890625 37.332031 C 24.890625 40.273438 22.496094 42.667969 19.554688 42.667969 Z M 19.554688 34.667969 C 18.085938 34.667969 16.890625 35.863281 16.890625 37.332031 C 16.890625 38.804688 18.085938 40 19.554688 40 C 21.027344 40 22.222656 38.804688 22.222656 37.332031 C 22.222656 35.863281 21.027344 34.667969 19.554688 34.667969 Z M 19.554688 34.667969 "/>
<path style=" stroke:none;fill-rule:nonzero;fill:rgb(0%,0%,0%);fill-opacity:1;" d="M 29.660156 39.109375 C 29.359375 39.109375 29.0625 39.011719 28.816406 38.8125 C 28.410156 38.476562 28.234375 37.9375 28.375 37.425781 L 29.707031 32.546875 C 26.632812 30.175781 24.890625 26.804688 24.890625 23.167969 C 24.890625 16.277344 31.269531 10.667969 39.109375 10.667969 C 46.953125 10.667969 53.332031 16.277344 53.332031 23.167969 C 53.332031 30.0625 46.953125 35.671875 39.109375 35.671875 C 38.40625 35.671875 37.691406 35.625 36.984375 35.53125 L 30.265625 38.964844 C 30.074219 39.0625 29.867188 39.109375 29.660156 39.109375 Z M 39.109375 13.332031 C 32.738281 13.332031 27.554688 17.746094 27.554688 23.167969 C 27.554688 26.199219 29.167969 29.015625 31.980469 30.894531 C 32.457031 31.214844 32.675781 31.800781 32.527344 32.355469 L 31.742188 35.214844 L 36.152344 32.960938 C 36.402344 32.832031 36.6875 32.785156 36.96875 32.832031 C 37.679688 32.949219 38.398438 33.007812 39.109375 33.007812 C 45.484375 33.007812 50.667969 28.59375 50.667969 23.167969 C 50.667969 17.746094 45.484375 13.332031 39.109375 13.332031 Z M 39.109375 13.332031 "/>
<path style=" stroke:none;fill-rule:nonzero;fill:rgb(0%,0%,0%);fill-opacity:1;" d="M 28.445312 52 L 25.777344 52 L 25.777344 49.332031 C 25.777344 48.109375 24.78125 47.109375 23.554688 47.109375 L 15.554688 47.109375 C 14.332031 47.109375 13.332031 48.109375 13.332031 49.332031 L 13.332031 52 L 10.667969 52 L 10.667969 49.332031 C 10.667969 46.636719 12.859375 44.445312 15.554688 44.445312 L 23.554688 44.445312 C 26.253906 44.445312 28.445312 46.636719 28.445312 49.332031 Z M 28.445312 52 "/>
</g>
</svg>
