<?xml version="1.0" encoding="UTF-8"?>
<svg xmlns="http://www.w3.org/2000/svg" xmlns:xlink="http://www.w3.org/1999/xlink" width="64pt" height="64pt" viewBox="0 0 64 64" version="1.1">
<g id="surface1">
<path style=" stroke:none;fill-rule:nonzero;fill:rgb(100%,90.196078%,75.294118%);fill-opacity:1;" d="M 8.859375 39.480469 C 6.675781 35.089844 5.453125 29.863281 5.53125 25.214844 C 5.761719 11.707031 16.808594 1.035156 30.316406 1.253906 C 43.601562 1.46875 54.300781 12.304688 54.300781 25.636719 L 58.414062 39.027344 C 58.660156 39.824219 58.0625 40.632812 57.226562 40.632812 L 51.609375 40.632812 L 51.609375 47.535156 C 51.609375 51.519531 48.378906 54.75 44.394531 54.75 L 36.136719 54.75 L 33.847656 62.75 L 8.597656 62.75 L 10.605469 54.421875 C 11.816406 49.394531 11.164062 44.113281 8.859375 39.480469 Z M 8.859375 39.480469 "/>
<path style=" stroke:none;fill-rule:nonzero;fill:rgb(100%,79.607843%,48.627451%);fill-opacity:1;" d="M 44.917969 25.625 C 44.917969 33.910156 38.203125 40.625 29.917969 40.625 C 21.632812 40.625 14.917969 33.910156 14.917969 25.625 C 14.917969 17.339844 21.632812 10.625 29.917969 10.625 C 38.203125 10.625 44.917969 17.339844 44.917969 25.625 Z M 44.917969 25.625 "/>
<path style=" stroke:none;fill-rule:nonzero;fill:rgb(0%,0%,0%);fill-opacity:1;" d="M 59.609375 38.660156 L 55.550781 25.449219 C 55.503906 18.742188 52.890625 12.429688 48.183594 7.648438 C 43.433594 2.828125 37.097656 0.113281 30.335938 0.00390625 C 25.53125 -0.078125 20.832031 1.175781 16.746094 3.613281 C 16.152344 3.96875 15.957031 4.734375 16.3125 5.328125 C 16.667969 5.921875 17.433594 6.113281 18.027344 5.761719 C 21.714844 3.558594 25.957031 2.433594 30.296875 2.503906 C 42.84375 2.707031 53.050781 13.082031 53.050781 25.636719 C 53.050781 25.761719 53.070312 25.886719 53.109375 26.003906 L 57.214844 39.382812 L 51.609375 39.382812 C 50.917969 39.382812 50.359375 39.941406 50.359375 40.632812 L 50.359375 47.535156 C 50.359375 50.824219 47.683594 53.5 44.394531 53.5 L 34.847656 53.5 C 31.875 53.5 29.082031 52.34375 26.980469 50.242188 C 26.492188 49.753906 25.699219 49.753906 25.210938 50.242188 C 24.726562 50.730469 24.726562 51.519531 25.210938 52.007812 C 27.699219 54.496094 30.980469 55.902344 34.480469 55.996094 L 32.644531 62.40625 C 32.453125 63.070312 32.839844 63.761719 33.503906 63.949219 C 33.617188 63.984375 33.734375 64 33.847656 64 C 34.390625 64 34.890625 63.640625 35.046875 63.09375 L 37.082031 56 L 44.394531 56 C 49.0625 56 52.859375 52.203125 52.859375 47.535156 L 52.859375 41.882812 L 57.226562 41.882812 C 58.027344 41.882812 58.757812 41.515625 59.230469 40.871094 C 59.707031 40.230469 59.84375 39.421875 59.609375 38.660156 Z M 59.609375 38.660156 "/>
<path style=" stroke:none;fill-rule:nonzero;fill:rgb(0%,0%,0%);fill-opacity:1;" d="M 6.78125 25.234375 C 6.855469 20.914062 8.113281 16.730469 10.417969 13.132812 C 10.789062 12.554688 10.621094 11.78125 10.039062 11.40625 C 9.457031 11.035156 8.683594 11.203125 8.3125 11.785156 C 5.757812 15.773438 4.363281 20.410156 4.28125 25.191406 C 4.199219 30.039062 5.460938 35.453125 7.738281 40.039062 C 9.933594 44.449219 10.515625 49.453125 9.390625 54.128906 L 7.382812 62.457031 C 7.21875 63.128906 7.632812 63.804688 8.304688 63.964844 C 8.402344 63.988281 8.5 64 8.597656 64 C 9.160156 64 9.675781 63.617188 9.8125 63.042969 L 11.820312 54.714844 C 13.085938 49.46875 12.429688 43.859375 9.980469 38.925781 C 7.871094 34.6875 6.707031 29.695312 6.78125 25.234375 Z M 6.78125 25.234375 "/>
<path style=" stroke:none;fill-rule:nonzero;fill:rgb(0%,0%,0%);fill-opacity:1;" d="M 46.167969 25.625 C 46.167969 16.664062 38.878906 9.375 29.917969 9.375 C 20.957031 9.375 13.667969 16.664062 13.667969 25.625 C 13.667969 34.585938 20.957031 41.875 29.917969 41.875 C 38.878906 41.875 46.167969 34.585938 46.167969 25.625 Z M 16.167969 25.625 C 16.167969 18.042969 22.335938 11.875 29.917969 11.875 C 37.5 11.875 43.667969 18.042969 43.667969 25.625 C 43.667969 33.207031 37.5 39.375 29.917969 39.375 C 22.335938 39.375 16.167969 33.207031 16.167969 25.625 Z M 16.167969 25.625 "/>
<path style=" stroke:none;fill-rule:nonzero;fill:rgb(0%,0%,0%);fill-opacity:1;" d="M 25.496094 21.59375 C 25.265625 21.363281 24.941406 21.230469 24.613281 21.230469 C 24.28125 21.230469 23.960938 21.363281 23.730469 21.59375 C 23.496094 21.828125 23.363281 22.148438 23.363281 22.480469 C 23.363281 22.808594 23.496094 23.128906 23.730469 23.363281 C 23.960938 23.59375 24.28125 23.730469 24.613281 23.730469 C 24.941406 23.730469 25.261719 23.59375 25.496094 23.363281 C 25.730469 23.128906 25.863281 22.808594 25.863281 22.480469 C 25.863281 22.148438 25.730469 21.828125 25.496094 21.59375 Z M 25.496094 21.59375 "/>
<path style=" stroke:none;fill-rule:nonzero;fill:rgb(0%,0%,0%);fill-opacity:1;" d="M 34.796875 23.730469 C 35.128906 23.730469 35.449219 23.59375 35.683594 23.363281 C 35.914062 23.128906 36.050781 22.808594 36.050781 22.480469 C 36.050781 22.148438 35.914062 21.828125 35.683594 21.59375 C 35.449219 21.363281 35.128906 21.230469 34.796875 21.230469 C 34.46875 21.230469 34.148438 21.363281 33.914062 21.59375 C 33.683594 21.828125 33.546875 22.148438 33.546875 22.480469 C 33.546875 22.808594 33.683594 23.128906 33.914062 23.363281 C 34.148438 23.59375 34.46875 23.730469 34.796875 23.730469 Z M 34.796875 23.730469 "/>
<path style=" stroke:none;fill-rule:nonzero;fill:rgb(0%,0%,0%);fill-opacity:1;" d="M 32.308594 31.410156 C 32.625 31.410156 32.945312 31.289062 33.191406 31.046875 C 33.679688 30.558594 33.679688 29.765625 33.191406 29.277344 C 31.269531 27.355469 28.140625 27.355469 26.21875 29.277344 C 25.734375 29.765625 25.734375 30.558594 26.21875 31.046875 C 26.707031 31.535156 27.5 31.535156 27.988281 31.046875 C 28.445312 30.585938 29.058594 30.332031 29.707031 30.332031 C 30.355469 30.332031 30.964844 30.585938 31.421875 31.046875 C 31.667969 31.289062 31.988281 31.410156 32.308594 31.410156 Z M 32.308594 31.410156 "/>
<path style=" stroke:none;fill-rule:nonzero;fill:rgb(0%,0%,0%);fill-opacity:1;" d="M 13.824219 7.246094 C 13.351562 6.746094 12.558594 6.726562 12.058594 7.203125 C 11.558594 7.679688 11.539062 8.46875 12.015625 8.96875 L 12.015625 8.972656 C 12.261719 9.230469 12.589844 9.359375 12.921875 9.359375 C 13.230469 9.359375 13.542969 9.246094 13.78125 9.015625 C 14.285156 8.539062 14.300781 7.746094 13.824219 7.246094 Z M 13.824219 7.246094 "/>
</g>
</svg>
