<?xml version="1.0" encoding="UTF-8"?>
<svg xmlns="http://www.w3.org/2000/svg" xmlns:xlink="http://www.w3.org/1999/xlink" width="64pt" height="64pt" viewBox="0 0 64 64" version="1.1">
<g id="surface1">
<path style=" stroke:none;fill-rule:nonzero;fill:rgb(97.647059%,65.490196%,65.490196%);fill-opacity:1;" d="M 51.917969 10.871094 L 12.082031 10.871094 C 7.804688 10.871094 4.332031 14.339844 4.332031 18.621094 L 4.332031 37.121094 C 4.332031 41.398438 7.804688 44.871094 12.082031 44.871094 L 20.574219 44.871094 L 19.828125 52.304688 C 19.765625 52.945312 20.488281 53.363281 21.011719 52.988281 L 32.300781 44.871094 L 51.917969 44.871094 C 56.195312 44.871094 59.667969 41.402344 59.667969 37.121094 L 59.667969 18.621094 C 59.667969 14.339844 56.195312 10.871094 51.917969 10.871094 Z M 51.917969 10.871094 "/>
<path style=" stroke:none;fill-rule:nonzero;fill:rgb(21.568627%,38.431373%,80%);fill-opacity:1;" d="M 20.578125 53.628906 C 20.363281 53.628906 20.148438 53.574219 19.949219 53.460938 C 19.519531 53.210938 19.28125 52.75 19.332031 52.253906 L 20.019531 45.371094 L 12.082031 45.371094 C 7.535156 45.371094 3.832031 41.667969 3.832031 37.121094 L 3.832031 18.621094 C 3.832031 14.070312 7.535156 10.371094 12.082031 10.371094 L 51.917969 10.371094 C 56.464844 10.371094 60.167969 14.070312 60.167969 18.621094 L 60.167969 37.121094 C 60.167969 41.667969 56.464844 45.371094 51.917969 45.371094 L 32.460938 45.371094 L 21.304688 53.394531 C 21.085938 53.550781 20.832031 53.628906 20.578125 53.628906 Z M 12.082031 11.371094 C 8.085938 11.371094 4.832031 14.621094 4.832031 18.621094 L 4.832031 37.121094 C 4.832031 41.117188 8.085938 44.371094 12.082031 44.371094 L 20.574219 44.371094 C 20.714844 44.371094 20.847656 44.429688 20.945312 44.535156 C 21.039062 44.640625 21.085938 44.777344 21.070312 44.917969 L 20.328125 52.351562 C 20.3125 52.496094 20.40625 52.570312 20.449219 52.59375 C 20.492188 52.617188 20.601562 52.664062 20.722656 52.582031 L 32.007812 44.464844 C 32.09375 44.402344 32.195312 44.371094 32.300781 44.371094 L 51.917969 44.371094 C 55.914062 44.371094 59.167969 41.117188 59.167969 37.121094 L 59.167969 18.621094 C 59.167969 14.621094 55.914062 11.371094 51.917969 11.371094 Z M 12.082031 11.371094 "/>
<path style=" stroke:none;fill-rule:nonzero;fill:rgb(27.45098%,44.313725%,77.647059%);fill-opacity:1;" d="M 16.730469 20.546875 C 16.730469 20.546875 16.484375 22.667969 16.179688 24.332031 L 18.632812 24.332031 L 19.203125 20.472656 C 19.296875 19.828125 19.78125 19.488281 20.285156 19.488281 C 20.8125 19.488281 21.191406 19.800781 21.191406 20.515625 C 21.191406 20.617188 20.902344 22.867188 20.632812 24.332031 L 21.511719 24.332031 C 22.125 24.332031 22.597656 24.640625 22.597656 25.292969 C 22.597656 25.941406 22.167969 26.25 21.511719 26.25 L 20.375 26.25 L 19.972656 29.007812 L 20.867188 29.007812 C 21.484375 29.007812 21.960938 29.3125 21.960938 29.96875 C 21.960938 30.617188 21.535156 30.929688 20.867188 30.929688 L 19.714844 30.929688 L 19.089844 35.136719 C 19.023438 35.703125 18.695312 36.164062 18.109375 36.164062 C 17.832031 36.164062 17.597656 36.078125 17.40625 35.90625 C 16.980469 35.53125 17.128906 35.011719 17.199219 34.453125 C 17.285156 33.804688 17.515625 32.128906 17.71875 30.929688 L 15.253906 30.929688 L 14.648438 35.046875 C 14.539062 35.789062 14.1875 36.164062 13.601562 36.164062 C 13.4375 36.15625 13.285156 36.113281 13.148438 36.039062 C 12.484375 35.679688 12.6875 34.816406 12.753906 34.308594 C 12.832031 33.703125 13.046875 32.152344 13.253906 30.929688 L 12.226562 30.929688 C 11.589844 30.929688 11.167969 30.601562 11.167969 29.902344 C 11.179688 29.390625 11.507812 29.007812 12.160156 29.007812 L 13.523438 29.007812 L 13.914062 26.253906 L 12.875 26.253906 C 12.269531 26.253906 11.804688 25.953125 11.804688 25.28125 C 11.804688 24.726562 12.148438 24.332031 12.875 24.332031 L 14.179688 24.332031 L 14.75 20.472656 C 14.828125 19.925781 15.226562 19.523438 15.800781 19.523438 C 16.488281 19.523438 16.816406 20.207031 16.730469 20.546875 Z M 17.976562 29.007812 L 18.378906 26.253906 L 15.910156 26.253906 L 15.519531 29.007812 Z M 17.976562 29.007812 "/>
<path style=" stroke:none;fill-rule:nonzero;fill:rgb(27.45098%,44.313725%,77.647059%);fill-opacity:1;" d="M 26.894531 29.554688 C 26.894531 28.648438 27.4375 28 28.050781 27.363281 C 28.683594 26.707031 29.980469 25.792969 30.402344 24.746094 C 30.503906 24.484375 30.558594 24.222656 30.558594 23.953125 C 30.558594 22.964844 30.0625 22.398438 29.140625 22.171875 C 27.988281 21.894531 26.445312 22.335938 25.722656 22.335938 C 25.066406 22.335938 24.5625 21.839844 24.5625 21.027344 C 24.5625 20.5 24.886719 19.980469 25.589844 19.769531 C 26.65625 19.460938 27.8125 19.308594 29.0625 19.308594 C 31.003906 19.308594 32.953125 19.941406 33.789062 21.691406 C 34.058594 22.261719 34.195312 22.921875 34.195312 23.671875 C 34.195312 25.148438 33.5 26.191406 32.449219 27.09375 C 31.3125 28.070312 30.507812 28.40625 30.003906 29.109375 C 29.4375 29.902344 30.195312 30.65625 29.367188 31.3125 C 29.082031 31.539062 28.742188 31.652344 28.347656 31.652344 C 28.167969 31.652344 27.996094 31.628906 27.832031 31.574219 C 26.878906 31.273438 26.894531 30.523438 26.894531 29.554688 Z M 26.648438 34.632812 C 26.648438 33.757812 27.3125 32.960938 28.367188 32.960938 C 29.285156 32.960938 30.085938 33.648438 30.085938 34.632812 C 30.085938 35.558594 29.375 36.328125 28.367188 36.328125 C 27.359375 36.328125 26.648438 35.558594 26.648438 34.632812 Z M 26.648438 34.632812 "/>
<path style=" stroke:none;fill-rule:nonzero;fill:rgb(27.45098%,44.313725%,77.647059%);fill-opacity:1;" d="M 38.820312 26.9375 C 38.519531 26.773438 38.25 26.304688 38.601562 25.714844 L 39.617188 24.109375 L 37.476562 24.164062 C 36.964844 24.164062 36.695312 23.796875 36.695312 23.382812 C 36.695312 23.101562 36.847656 22.808594 37.136719 22.679688 C 37.386719 22.570312 37.5 22.613281 39.585938 22.679688 L 38.636719 21.152344 C 38.335938 20.660156 38.421875 20.230469 38.6875 19.980469 C 39.050781 19.636719 39.632812 19.710938 39.898438 20.203125 L 40.902344 22.03125 L 41.871094 20.292969 C 42.21875 19.679688 42.71875 19.679688 43.011719 19.855469 C 43.335938 20.050781 43.5625 20.519531 43.222656 21.0625 L 42.21875 22.679688 L 44.363281 22.613281 C 44.878906 22.613281 45.152344 22.988281 45.152344 23.390625 C 45.152344 23.789062 44.878906 24.164062 44.363281 24.164062 L 42.207031 24.109375 C 43.15625 25.609375 43.195312 25.640625 43.277344 25.90625 C 43.429688 26.390625 43.246094 26.761719 42.964844 26.910156 C 42.660156 27.074219 42.171875 27.058594 41.863281 26.496094 L 40.902344 24.800781 L 39.953125 26.496094 C 39.640625 27.078125 39.15625 27.121094 38.820312 26.9375 Z M 38.820312 26.9375 "/>
<path style=" stroke:none;fill-rule:nonzero;fill:rgb(27.45098%,44.313725%,77.647059%);fill-opacity:1;" d="M 49.082031 20.480469 C 49.082031 19.457031 50.011719 18.929688 50.957031 18.929688 C 51.898438 18.929688 52.832031 19.453125 52.832031 20.480469 C 52.832031 20.648438 52.890625 20.039062 51.894531 29.632812 C 51.816406 30.277344 51.390625 30.582031 50.953125 30.582031 C 50.507812 30.582031 50.070312 30.257812 50.007812 29.632812 C 49.023438 20.003906 49.082031 20.648438 49.082031 20.480469 Z M 49.273438 34.164062 C 49.273438 33.296875 49.945312 32.492188 50.992188 32.492188 C 51.921875 32.492188 52.710938 33.164062 52.710938 34.164062 C 52.710938 35.0625 52.007812 35.851562 50.992188 35.851562 C 50.023438 35.851562 49.273438 35.125 49.273438 34.164062 Z M 49.273438 34.164062 "/>
</g>
</svg>
