<?xml version="1.0" encoding="UTF-8"?>
<svg xmlns="http://www.w3.org/2000/svg" xmlns:xlink="http://www.w3.org/1999/xlink" width="64pt" height="64pt" viewBox="0 0 64 64" version="1.1">
<g id="surface1">
<path style=" stroke:none;fill-rule:nonzero;fill:rgb(93.72549%,93.72549%,93.72549%);fill-opacity:1;" d="M 14.890625 7.40625 C 27.1875 7.40625 35.632812 1.039062 41.558594 1.039062 C 47.484375 1.039062 59.929688 4.445312 59.929688 31.703125 C 59.929688 58.960938 43.1875 62.960938 36.671875 62.960938 C 6.152344 62.964844 -6.886719 7.40625 14.890625 7.40625 Z M 14.890625 7.40625 "/>
<path style=" stroke:none;fill-rule:nonzero;fill:rgb(64.313725%,68.627451%,75.686275%);fill-opacity:1;" d="M 6.894531 4.203125 L 8.152344 2.945312 L 10.667969 5.460938 L 9.410156 6.714844 Z M 6.894531 4.203125 "/>
<path style=" stroke:none;fill-rule:nonzero;fill:rgb(64.313725%,68.627451%,75.686275%);fill-opacity:1;" d="M 6.578125 12.6875 L 9.09375 10.171875 L 10.347656 11.429688 L 7.835938 13.945312 Z M 6.578125 12.6875 "/>
<path style=" stroke:none;fill-rule:nonzero;fill:rgb(64.313725%,68.627451%,75.686275%);fill-opacity:1;" d="M 13.808594 5.460938 L 16.320312 2.945312 L 17.578125 4.203125 L 15.066406 6.714844 Z M 13.808594 5.460938 "/>
<path style=" stroke:none;fill-rule:nonzero;fill:rgb(64.313725%,68.627451%,75.686275%);fill-opacity:1;" d="M 53.777344 11.109375 C 52.308594 11.109375 51.109375 9.914062 51.109375 8.445312 C 51.109375 6.972656 52.308594 5.777344 53.777344 5.777344 C 55.246094 5.777344 56.445312 6.972656 56.445312 8.445312 C 56.445312 9.914062 55.246094 11.109375 53.777344 11.109375 Z M 53.777344 7.554688 C 53.289062 7.554688 52.890625 7.957031 52.890625 8.445312 C 52.890625 8.933594 53.289062 9.332031 53.777344 9.332031 C 54.265625 9.332031 54.667969 8.933594 54.667969 8.445312 C 54.667969 7.957031 54.265625 7.554688 53.777344 7.554688 Z M 53.777344 7.554688 "/>
<path style=" stroke:none;fill-rule:nonzero;fill:rgb(95.294118%,95.294118%,94.509804%);fill-opacity:1;" d="M 48.445312 37.332031 C 48.445312 39.542969 46.652344 41.332031 44.445312 41.332031 C 42.234375 41.332031 40.445312 39.542969 40.445312 37.332031 C 40.445312 35.125 42.234375 33.332031 44.445312 33.332031 C 46.652344 33.332031 48.445312 35.125 48.445312 37.332031 Z M 48.445312 37.332031 "/>
<path style=" stroke:none;fill-rule:nonzero;fill:rgb(18.431373%,87.45098%,51.764706%);fill-opacity:1;" d="M 32.757812 32.003906 L 34.339844 37.777344 L 27.242188 34.152344 C 26.488281 34.273438 25.695312 34.339844 24.890625 34.339844 C 17.773438 34.339844 12 29.339844 12 23.167969 C 12 17 17.773438 12 24.890625 12 C 32.003906 12 37.777344 17 37.777344 23.167969 C 37.777344 26.761719 35.820312 29.960938 32.757812 32.003906 Z M 32.757812 32.003906 "/>
<path style=" stroke:none;fill-rule:nonzero;fill:rgb(95.294118%,95.294118%,94.509804%);fill-opacity:1;" d="M 36.890625 52 L 36.890625 49.332031 C 36.890625 47.367188 38.480469 45.777344 40.445312 45.777344 L 48.445312 45.777344 C 50.410156 45.777344 52 47.367188 52 49.332031 L 52 52 Z M 36.890625 52 "/>
<path style=" stroke:none;fill-rule:nonzero;fill:rgb(83.529412%,85.882353%,88.235294%);fill-opacity:1;" d="M 44.445312 37.332031 C 44.445312 35.855469 45.253906 34.582031 46.445312 33.886719 C 45.855469 33.542969 45.175781 33.332031 44.445312 33.332031 C 42.234375 33.332031 40.445312 35.125 40.445312 37.332031 C 40.445312 39.542969 42.234375 41.332031 44.445312 41.332031 C 45.175781 41.332031 45.855469 41.121094 46.445312 40.777344 C 45.253906 40.085938 44.445312 38.8125 44.445312 37.332031 Z M 44.445312 37.332031 "/>
<path style=" stroke:none;fill-rule:nonzero;fill:rgb(0%,72.156863%,44.313725%);fill-opacity:1;" d="M 16 23.167969 C 16 17.589844 20.726562 12.984375 26.890625 12.148438 C 26.234375 12.058594 25.570312 12 24.890625 12 C 17.773438 12 12 17 12 23.167969 C 12 29.339844 17.773438 34.339844 24.890625 34.339844 C 25.574219 34.339844 26.242188 34.28125 26.894531 34.191406 C 20.730469 33.363281 16 28.75 16 23.167969 Z M 16 23.167969 "/>
<path style=" stroke:none;fill-rule:nonzero;fill:rgb(0%,72.156863%,44.313725%);fill-opacity:1;" d="M 31.242188 34.152344 C 30.488281 34.273438 29.695312 34.339844 28.890625 34.339844 C 28.410156 34.339844 27.941406 34.3125 27.476562 34.269531 L 34.339844 37.777344 L 33.691406 35.402344 Z M 31.242188 34.152344 "/>
<path style=" stroke:none;fill-rule:nonzero;fill:rgb(83.529412%,85.882353%,88.235294%);fill-opacity:1;" d="M 44.445312 45.777344 L 40.445312 45.777344 C 38.480469 45.777344 36.890625 47.367188 36.890625 49.332031 L 36.890625 52 L 40.890625 52 L 40.890625 49.332031 C 40.890625 47.367188 42.480469 45.777344 44.445312 45.777344 Z M 44.445312 45.777344 "/>
<path style=" stroke:none;fill-rule:nonzero;fill:rgb(0%,0%,0%);fill-opacity:1;" d="M 44.445312 42.667969 C 41.503906 42.667969 39.109375 40.273438 39.109375 37.332031 C 39.109375 34.394531 41.503906 32 44.445312 32 C 47.386719 32 49.777344 34.394531 49.777344 37.332031 C 49.777344 40.273438 47.386719 42.667969 44.445312 42.667969 Z M 44.445312 34.667969 C 42.972656 34.667969 41.777344 35.863281 41.777344 37.332031 C 41.777344 38.804688 42.972656 40 44.445312 40 C 45.914062 40 47.109375 38.804688 47.109375 37.332031 C 47.109375 35.863281 45.914062 34.667969 44.445312 34.667969 Z M 44.445312 34.667969 "/>
<path style=" stroke:none;fill-rule:nonzero;fill:rgb(0%,0%,0%);fill-opacity:1;" d="M 34.339844 39.109375 C 34.132812 39.109375 33.925781 39.0625 33.734375 38.964844 L 27.015625 35.53125 C 26.308594 35.625 25.59375 35.671875 24.890625 35.671875 C 17.046875 35.671875 10.667969 30.0625 10.667969 23.167969 C 10.667969 16.277344 17.046875 10.667969 24.890625 10.667969 C 32.730469 10.667969 39.109375 16.277344 39.109375 23.167969 C 39.109375 26.804688 37.367188 30.171875 34.292969 32.542969 L 35.625 37.425781 C 35.765625 37.933594 35.589844 38.476562 35.183594 38.8125 C 34.9375 39.011719 34.640625 39.109375 34.339844 39.109375 Z M 27.242188 32.816406 C 27.453125 32.816406 27.660156 32.867188 27.847656 32.964844 L 32.257812 35.214844 L 31.472656 32.355469 C 31.324219 31.800781 31.542969 31.214844 32.019531 30.898438 C 34.832031 29.015625 36.445312 26.199219 36.445312 23.171875 C 36.445312 17.746094 31.261719 13.332031 24.890625 13.332031 C 18.515625 13.332031 13.332031 17.746094 13.332031 23.167969 C 13.332031 28.59375 18.515625 33.007812 24.890625 33.007812 C 25.601562 33.007812 26.320312 32.949219 27.03125 32.832031 C 27.101562 32.824219 27.171875 32.816406 27.242188 32.816406 Z M 27.242188 32.816406 "/>
<path style=" stroke:none;fill-rule:nonzero;fill:rgb(0%,0%,0%);fill-opacity:1;" d="M 53.332031 52 L 50.667969 52 L 50.667969 49.332031 C 50.667969 48.109375 49.667969 47.109375 48.445312 47.109375 L 40.445312 47.109375 C 39.21875 47.109375 38.222656 48.109375 38.222656 49.332031 L 38.222656 52 L 35.554688 52 L 35.554688 49.332031 C 35.554688 46.636719 37.746094 44.445312 40.445312 44.445312 L 48.445312 44.445312 C 51.140625 44.445312 53.332031 46.636719 53.332031 49.332031 Z M 53.332031 52 "/>
</g>
</svg>
